<?xml version="1.0" encoding="UTF-8" standalone="no"?>
<svg
   viewBox="0 0 369.66666666666663 83.33333333333333"
   preserveAspectRatio="xMidYMid meet"
   class="css-4ymrzp"
   id="feagafef"
   width="369.66666666666663"
   height="83.33333333333333"
   version="1.1"
   sodipodi:docname="brand-dark.svg"
   inkscape:version="1.3.2 (1:1.3.2+202311252150+091e20ef0f)"
   xmlns:inkscape="http://www.inkscape.org/namespaces/inkscape"
   xmlns:sodipodi="http://sodipodi.sourceforge.net/DTD/sodipodi-0.dtd"
   xmlns="http://www.w3.org/2000/svg"
   xmlns:svg="http://www.w3.org/2000/svg">
  <sodipodi:namedview
     id="namedview4"
     pagecolor="#ffffff"
     bordercolor="#000000"
     borderopacity="0.25"
     inkscape:showpageshadow="2"
     inkscape:pageopacity="0.0"
     inkscape:pagecheckerboard="0"
     inkscape:deskcolor="#d1d1d1"
     inkscape:zoom="2.9513076"
     inkscape:cx="184.83333"
     inkscape:cy="41.676442"
     inkscape:window-width="1920"
     inkscape:window-height="1049"
     inkscape:window-x="1920"
     inkscape:window-y="0"
     inkscape:window-maximized="1"
     inkscape:current-layer="feagafef" />
  <defs
     id="SvgjsDefs3454" />
  <g
     id="SvgjsG3455"
     featurekey="5TMTKC-0"
     transform="matrix(1.0823213242502634,0,0,1.0823213242502634,-11.905534566752898,-12.99326452494011)"
     fill="#FFFFFF"
     style="fill:#000000">
    <path
       d="M61.51,51.099c0.326,1.645,1.925,2.713,3.57,2.388c1.641-0.329,2.71-1.928,2.383-3.572  c-0.326-1.645-1.927-2.711-3.569-2.386C62.248,47.857,61.182,49.457,61.51,51.099z"
       fill="#FFFFFF"
       id="path1"
       style="fill:#000000" />
    <path
       d="M46.759,51.099c0.326,1.645,1.925,2.713,3.57,2.388c1.641-0.329,2.711-1.928,2.383-3.572  c-0.326-1.645-1.927-2.711-3.569-2.386C47.497,47.857,46.431,49.457,46.759,51.099z"
       fill="#FFFFFF"
       id="path2"
       style="fill:#000000" />
    <circle
       cx="34.985"
       cy="50.506"
       r="3.034"
       fill="#FFFFFF"
       id="circle2"
       style="fill:#000000" />
    <path
       d="M77.025,77.379c6.779-6.943,10.97-16.428,10.97-26.876c0-21.229-17.27-38.498-38.497-38.498S11,29.274,11,50.503  C11,71.73,28.271,89,49.498,89c6.367,0,12.374-1.563,17.669-4.312l10.105,3.98c0.112,0.044,0.23,0.066,0.348,0.066  c0.212,0,0.421-0.07,0.593-0.207c0.265-0.211,0.397-0.549,0.348-0.885L77.025,77.379z M71.189,79.563  c-0.172,0.137-0.381,0.207-0.592,0.207c-0.118,0-0.236-0.021-0.349-0.066l-6.845-2.697c-4.158,2.191-8.889,3.438-13.906,3.438  c-16.512,0-29.944-13.433-29.944-29.942c0-16.511,13.433-29.943,29.944-29.943c16.51,0,29.942,13.433,29.942,29.943  c0,8.329-3.422,15.872-8.931,21.306l1.028,6.871C71.588,79.015,71.455,79.352,71.189,79.563z"
       fill="#FFFFFF"
       id="path3"
       style="fill:#000000" />
  </g>
  <g
     id="SvgjsG3456"
     featurekey="7UBp9i-0"
     transform="matrix(3.2456993035608663,0,0,3.2456993035608663,102.02628958986372,-0.5391066501895487)"
     fill="#FFFFFF"
     style="fill:#000000">
    <path
       d="M7.48 20 l-3.1 0 l0 -10.86 l-4.08 0 l0 -2.84 l11.26 0 l0 2.84 l-4.08 0 l0 10.86 z M17.66 12.16 c-1.52 0 -2.7 1.24 -2.7 2.76 c0 1.54 1.18 2.76 2.7 2.76 c1.6 0 2.8 -1.22 2.8 -2.76 c0 -1.52 -1.24 -2.76 -2.8 -2.76 z M20.42 20 l0 -0.76 c-0.72 0.56 -1.84 0.9 -3 0.9 c-2.8 0 -5.18 -2.26 -5.18 -5.22 s2.38 -5.28 5.18 -5.28 c1.16 0 2.28 0.36 3 0.92 l0 -0.82 l2.78 0 l0 10.26 l-2.78 0 z M30.78 14.74 l3.34 5.26 l-3.32 0 l-1.8 -3.1 l-1.82 3.1 l-3.24 0 l3.3 -5.22 l-3.22 -5.04 l3.3 0 l1.72 2.92 l1.7 -2.92 l3.24 0 z M37.64 8.86 l-2.78 0 l0 -2.56 l2.78 0 l0 2.56 z M37.64 20 l-2.78 0 l0 -10.26 l2.78 0 l0 10.26 z M45.96 8.9 c-2.32 0 -4.08 1.86 -4.08 4.22 c0 2.42 1.76 4.26 4.18 4.26 c1.68 0 2.96 -0.88 3.74 -2.22 l2.42 1.68 c-1.32 2.16 -3.34 3.44 -6.12 3.44 c-4.22 0 -7.38 -3.14 -7.38 -7.16 c0 -3.98 3.14 -7.1 7.3 -7.1 c2.7 0 4.84 1.12 6.14 3.42 l-2.46 1.7 c-0.8 -1.32 -2 -2.24 -3.74 -2.24 z M55.92 6.3 l0 4.48 c0.4 -0.52 1.5 -1.22 2.94 -1.22 c2.4 0 3.96 1.66 3.96 4.14 l0 6.3 l-2.76 0 l0 -5.82 c0 -1.22 -0.7 -2.06 -1.88 -2.06 c-1.36 0 -2.26 0.86 -2.26 2.28 l0 5.6 l-2.78 0 l0 -13.7 l2.78 0 z M69.18 12.16 c-1.52 0 -2.7 1.24 -2.7 2.76 c0 1.54 1.18 2.76 2.7 2.76 c1.6 0 2.8 -1.22 2.8 -2.76 c0 -1.52 -1.24 -2.76 -2.8 -2.76 z M71.94 20 l0 -0.76 c-0.72 0.56 -1.84 0.9 -3 0.9 c-2.8 0 -5.18 -2.26 -5.18 -5.22 s2.38 -5.28 5.18 -5.28 c1.16 0 2.28 0.36 3 0.92 l0 -0.82 l2.78 0 l0 10.26 l-2.78 0 z M79.94 9.74 l2.52 0 l0 2.48 l-2.52 0 l0 4.12 c0 0.92 0.42 1.28 1.36 1.28 l1.16 0 l0 2.38 l-1.36 0 c-2.72 0 -3.94 -1.22 -3.94 -3.52 l0 -4.26 l-1.48 0 l0 -2.48 l1.48 0 l0 -2.64 l2.78 0 l0 2.64 z"
       fill="#FFFFFF"
       id="path4"
       style="fill:#000000" />
  </g>
</svg>
